<svg xmlns="http://www.w3.org/2000/svg" viewBox="0 0 150 150"><defs><style>.a{fill:#333c45;}.a,.b{fill-rule:evenodd;}.b{fill:#fff;}</style></defs><title>-icons</title><path class="a" d="M118.11 75a42.86 42.86 0 1 0-42.86 42.86 42.86 42.86 0 0 0 42.86-42.86z"/><path class="b" d="M56.7 50.91a3.24 3.24 0 0 0-5.14-2.23l-.22.18a3.06 3.06 0 0 0 .07-1.61 2.9 2.9 0 0 0-5.09-1.13l-.56.7-2.91 3.64-2.5 3.12-.16.21.11.09 1 .78 3.67 2.94 3.63 2.91.93.74a.22.22 0 0 0 .1.07l.18-.23 2.47-3.09 3-3.73a6.38 6.38 0 0 0 1.33-2.05 3.32 3.32 0 0 0 .11-1.28zm-10.7 3.51l-1.51-1.21-.58-.46.21-.27 2.79-3.48a2.28 2.28 0 0 1 .85-.8 1.35 1.35 0 0 1 1.51.34 1.37 1.37 0 0 1 .31 1.23 2.93 2.93 0 0 1-.63 1l-1.48 1.85-1.47 1.8zm7.42-1.42l-1 1.19-2.63 3.28-.14-.11-.65-.55-1.24-1 2.38-3 1.16-1.45a1.43 1.43 0 0 1 1.09-.61 1.34 1.34 0 0 1 1.03 2.25zM102 75a26.79 26.79 0 1 0-26.79 26.79 26.79 26.79 0 0 0 26.79-26.79z"/><path class="a" d="M75.25 49.57a26.13 26.13 0 0 0-25.43 25.43h25.43v-25.43zM75.25 100.43a26.13 26.13 0 0 0 25.43-25.43h-25.43v25.43z"/><path class="b" d="M103.83 45.69l-2.24-2.08-7.25 9.52 2.24 2.07 7.95-3.64-5.3 6.96 1.53 2.63 10.88-4.99-1.53-2.63-6.28 2.88 4.46-5.86-1.95-2.44-6.7 3.07 4.19-5.49zM71.31 38.39l2.82 8.04h2.23l2.83-8.04.3 8.04 3.13.44-.45-12.05-4.02-.45-2.9 8.48-2.9-8.48-4.02.45-.45 12.05 3.13-.44.3-8.04z"/></svg>