<svg xmlns="http://www.w3.org/2000/svg" viewBox="0 0 150 150"><defs><style>.a{fill:#333c45;}</style></defs><title>-icons</title><path class="a" d="M57.58 63.41a1.93 1.93 0 0 0-1.58.69c-.35.47-.57 1-.57 3.88s.22 3.39.57 3.85a2 2 0 0 0 3.08 0c.35-.47.57-1 .57-3.85s-.22-3.41-.57-3.88a1.93 1.93 0 0 0-1.5-.69zm26.68-36.84h-36.62a5.4 5.4 0 0 0-5.47 5.32v66.87a5.4 5.4 0 0 0 5.47 5.32h54.71c3 0 5.47-3.75 5.47-6.68v-50.81zm-22.26 47.65a6.31 6.31 0 0 1-8.77 0c-1.65-1.66-1.59-3.88-1.59-6.25s-.07-4.58 1.59-6.25a6.31 6.31 0 0 1 8.77 0c1.65 1.66 1.59 3.88 1.59 6.25s.03 4.59-1.59 6.25zm19 1.64h-3.33l-5-7.93v7.93h-3.88v-15.77h3.37l5 7.93v-7.93h3.84v15.77zm16.1-12.32h-6.81v2.64h5.82v3.46h-5.82v2.76h6.81v3.46h-10.66v-15.77h10.66v3.46zm-6.86-15.6c-3.61 0-6.53-2.39-6.53-5.35v-12l20.1 17.38h-13.57zM5.34 126.33h-5.34v13.44h3.31v-4.77h2a4.33 4.33 0 1 0 .03-8.67zm-.16 5.67h-1.87v-2.7h1.87a1.36 1.36 0 1 1 0 2.7zm12.34-5.68l-4.9 13.44h3.46l.66-2h4.14l.62 2h3.5l-4.9-13.44h-2.58zm.15 8.68l1.21-3.59 1.12 3.59h-2.33zm16.44-8.68h-5.33v13.44h3.31v-4.76h2a4.33 4.33 0 1 0 .02-8.67zm-.11 5.68h-1.91v-2.7h1.91a1.36 1.36 0 1 1 0 2.7zm9.58 7.76h9.12v-2.95h-5.85v-2.36h5v-2.95h-5v-2.25h5.85v-2.95h-9.16v13.44zm24.42-9.1a4.3 4.3 0 0 0-4.6-4.32h-5.34v13.44h3.31v-5h1.12l2.38 5h3.84l-2.91-5.61a3.87 3.87 0 0 0 2.2-3.51zm-4.75 1.34h-1.87v-2.7h1.87a1.36 1.36 0 1 1 0 2.7zm20.75-5.67h-3.35v13.44h9v-2.95h-5.65v-10.5zm14.7 0l-4.9 13.44h3.46l.66-2h4.08l.62 2h3.46l-4.9-13.44h-2.52zm.11 8.67l1.21-3.59 1.14 3.59h-2.35zm19.06-1.93l-4.31-6.76h-2.9v13.44h3.34v-6.75l4.31 6.76h2.9v-13.43h-3.31v6.76zm9 6.68h9.13v-2.95h-5.85v-2.36h5v-2.95h-5v-2.25h5.85v-2.95h-9.16v13.44zm14.13-12.43h1.32v4.17h1v-4.17h1.32v-.88h-3.64v.88zm8-.88l-1.31 2.73-1.32-2.73h-1v5.06h1v-2.95l1 1.92h.63l1-1.92v2.95h1v-5.06h-1z"/></svg>