<svg xmlns="http://www.w3.org/2000/svg" viewBox="0 0 150 150"><defs><style>.a{fill:#333c45;}</style></defs><title>-icons</title><path class="a" d="M74.57 28.89a.7.7 0 1 1-.95-.25.69.69 0 0 1 .95.25M77.57 28.89a.71.71 0 0 0 .25 1 .7.7 0 0 0 .7-1.2.7.7 0 0 0-1 .25"/><path class="a" d="M74.007 29.68l.346-.201 1.491 2.569-.346.201zM76.276 32.104l1.488-2.569.346.2-1.488 2.569zM75.87 29.03h.4v2.97h-.4zM76.76 28.6a.7.7 0 1 1-.7-.69.69.69 0 0 1 .7.69"/><path class="a" d="M92.71 38.35c-1.51-.5-6.88-1.16-10 .26a8.5 8.5 0 0 0-4.67-3 6 6 0 0 0 .48-1.75 2.48 2.48 0 0 0-5 0 6 6 0 0 0 .48 1.75 8.48 8.48 0 0 0-4.66 3c-3.1-1.42-8.47-.76-10-.26a1 1 0 0 0-.66.49 1.84 1.84 0 0 0 .67.55c.67.47 5.82 4.3 8.52 13.53a.51.51 0 0 0 .61.45h15a.51.51 0 0 0 .61-.45c2.8-9.23 7.91-13.06 8.61-13.53a1.86 1.86 0 0 0 .67-.55 1 1 0 0 0-.66-.49zm-16.64-5.72a1.24 1.24 0 0 1 1.24 1.24 5.2 5.2 0 0 1-.23 1.57c0 .13-.08.27-.12.39a.89.89 0 0 1-1.77 0c0-.12-.08-.26-.12-.39a5.12 5.12 0 0 1-.23-1.57 1.23 1.23 0 0 1 1.23-1.24zm-6.07 19.5c-2.26-7.34-7.69-11.54-9.57-13.13 3-.57 6.61-.25 9 2.07a1 1 0 0 0 .42.33.64.64 0 0 0 .23-.4c1-2.31 2.26-4.11 4.18-4.87.38.94.84 1.86 1.09 2.37-.7 1.33-3.49 6.74-3.49 8.66a6.08 6.08 0 0 0 2.49 5h-4.35zm3.17-5c0-1.16 1.6-4.67 2.95-7.3 1.29 2.64 2.88 6.17 2.88 7.31a3 3 0 1 1-5.88 0zm9.06 5h-4.46a6.08 6.08 0 0 0 2.49-5c0-1.91-2.79-7.32-3.49-8.66.25-.51.71-1.43 1.09-2.37 1.93.78 3.14 2.58 4.14 4.9a.64.64 0 0 0 .28.39 1 1 0 0 0 .46-.39c2.36-2.31 5.94-2.63 9-2.07-1.92 1.66-7.34 5.86-9.56 13.2zM31.57 106.25h-5.08v-.41l.37-.05c.26 0 .35-.08.35-.2v-5.12c0-.09-.05-.14-.39-.19l-.33-.05v-.41h2.91v.41l-.41.05c-.29 0-.36.09-.36.2v5.3h.17c1.6 0 1.78-.09 2-.8l.26-.84h.73zM33.63 106.25v-.4l.42-.09a.18.18 0 0 0 .17-.18v-3.45a.18.18 0 0 0-.17-.17l-.42-.09v-.4h2.45v.4l-.42.09a.18.18 0 0 0-.17.17v3.45a.18.18 0 0 0 .17.18l.42.09v.4h-2.45zM42.51 107.64a2.28 2.28 0 0 1-2.21-1.26 2.36 2.36 0 0 1-2.3-2.47 2.59 2.59 0 0 1 2.68-2.57 2.4 2.4 0 0 1 2.61 2.49 2.5 2.5 0 0 1-1.69 2.39 2.06 2.06 0 0 0 2.11.86v.38a5.12 5.12 0 0 1-1.2.18zm-1.88-5.84c-.73 0-1.29.63-1.29 2s.6 2.12 1.36 2.12 1.3-.63 1.3-2-.6-2.11-1.37-2.11zM50.42 101.82l-.36.09c-.15 0-.3.12-.3 1.52v1.13a1.78 1.78 0 0 1-2 1.87 1.75 1.75 0 0 1-2-1.78v-2.52a.19.19 0 0 0-.17-.17l-.34-.09v-.4h2.29v.4l-.35.09a.19.19 0 0 0-.17.17v2.26c0 1 .44 1.44 1.2 1.44a1.17 1.17 0 0 0 1.22-1.41v-1c0-1.22-.06-1.42-.29-1.47l-.4-.08v-.4h1.84zM56.67 106.25h-4.47v-.4l.34-.09a.19.19 0 0 0 .17-.18v-3.45a.19.19 0 0 0-.17-.17l-.34-.09v-.4h4.52v1.64h-.63l-.15-.59c-.14-.56-.43-.64-1.52-.64h-.42v1.79h.23a.6.6 0 0 0 .66-.27l.2-.53h.41l-.18 1.92h-.46l-.08-.48c0-.21-.14-.28-.63-.28h-.15v1.82h.47c1.09 0 1.4-.09 1.56-.64l.15-.57h.68zM64.08 101.82l-.36.09c-.15 0-.3.12-.3 1.52v1.13a1.78 1.78 0 0 1-2 1.87 1.75 1.75 0 0 1-2-1.78v-2.52a.19.19 0 0 0-.17-.17l-.34-.09v-.4h2.29v.4l-.35.09a.19.19 0 0 0-.17.17v2.26c0 1 .44 1.44 1.2 1.44a1.17 1.17 0 0 0 1.12-1.41v-1c0-1.22-.06-1.42-.29-1.47l-.4-.08v-.4h1.84zM69.32 106.25l-.32-.62-.81-1.36h-.59v1.33a.19.19 0 0 0 .17.18l.35.09v.4h-2.27v-.4l.35-.09a.18.18 0 0 0 .17-.18v-3.45a.18.18 0 0 0-.17-.17l-.35-.09v-.4h2.63c1.36 0 2 .56 2 1.24a1.44 1.44 0 0 1-1.16 1.38l1 1.39a.67.67 0 0 0 .4.32l.22.06v.4h-1.62zm-1.32-4.38h-.4v2l.64.06a1 1 0 0 0 .91-1 1 1 0 0 0-1.15-1.06zM78 106.37a1.09 1.09 0 0 1-.72-.5 6.83 6.83 0 0 1 .38-1.06h-.08c-.57.84-.88 1.55-1.47 1.55a.94.94 0 0 1-.95-1.06 3 3 0 0 1 .93-2 1.6 1.6 0 0 1 1-.5.63.63 0 0 1 .66.61h.07l.26-1.12a.26.26 0 0 0-.08-.29l-.38-.18.06-.23 1.78-.4-.9 3.45-.26 1.12.19.07.5-.31.13.17a1.42 1.42 0 0 1-1.12.68zm-1-3a.3.3 0 0 0-.24.11 2.32 2.32 0 0 0-.56 1.52.5.5 0 0 0 .36.6 2.11 2.11 0 0 0 1-1.05l.23-.64a1.14 1.14 0 0 0-.79-.54zM81.32 105.07a.64.64 0 0 0 .64.65 4 4 0 0 0 1-.54l.14.18a2 2 0 0 1-1.56 1 1.18 1.18 0 0 1-1.28-1.31 2.31 2.31 0 0 1 2.14-2.25.84.84 0 0 1 1 .76c0 .51-.72.76-2.08 1.5zm0-.31c.68-.41 1.15-.68 1.15-1.12a.5.5 0 0 0-.5-.36.23.23 0 0 0-.19.07 2.78 2.78 0 0 0-.5 1.41zM91.38 101.95l-.22-.85c-.22-.75-.45-.8-2.08-.8h-.32v2.6h.31c.58 0 .83 0 .94-.33l.25-.7h.54l-.24 2.49h-.56l-.1-.66c0-.26-.15-.34-.9-.34h-.24v2.27c0 .09.07.15.38.18h.55v.41h-3.04v-.41h.37c.26 0 .35-.08.35-.2v-5.14c0-.09-.05-.14-.39-.18h-.33v-.41h5.43v2.12h-.7zM96.95 106.25l-.35-.63-.81-1.36h-.56v1.33a.19.19 0 0 0 .17.18l.35.09v.4h-2.27v-.4l.35-.09a.18.18 0 0 0 .16-.18v-3.45a.18.18 0 0 0-.16-.17l-.35-.09v-.4h2.63c1.36 0 2 .56 2 1.24a1.44 1.44 0 0 1-1.16 1.38l1 1.39a.67.67 0 0 0 .4.32l.22.06v.4h-1.62zm-1.3-4.39h-.42v2l.64.06a1 1 0 0 0 .91-1 1 1 0 0 0-1.14-1.05zM102.67 106.25v-.4h.24c.32-.06.37-.11.15-.75l-.11-.33h-1.71l-.08.24c-.21.61-.15.76.17.83l.22.05v.4h-1.81v-.4h.17c.36-.08.48-.15 1-1.42l.94-2.54v-.25l1.2-.27 1.45 4.16a.47.47 0 0 0 .41.3l.23.05v.4h-2.47zm-.49-3.89h-.1l-.69 2h1.45zM112.1 101.87l-.34.08c-.22.05-.3.23-.3 1.47v2.89h-1.09l-2.6-3.67h-.13v1.66c0 1.22.08 1.42.3 1.47l.39.08v.4h-1.82v-.4l.33-.08c.23-.06.3-.22.3-1.47v-2a.34.34 0 0 0-.14-.3l-.33-.1v-.4h1.77l2.46 3.5h.1v-1.57c0-1.22-.07-1.42-.3-1.47l-.39-.08v-.4h1.81zM118.56 106.25l-.59-.11a3.8 3.8 0 0 1-1.34.26c-1.62 0-2.75-.86-2.75-2.47a2.56 2.56 0 0 1 2.78-2.59 4 4 0 0 1 1.22.2l.77-.18v1.79h-.65l-.38-1.15a1.65 1.65 0 0 0-.83-.22c-1 0-1.58.81-1.58 2s.58 2.16 1.55 2.16a1.91 1.91 0 0 0 .79-.16l.45-1.17h.7zM125.33 106.25h-4.47v-.4l.34-.09a.19.19 0 0 0 .17-.18v-3.45a.19.19 0 0 0-.17-.17l-.34-.09v-.4h4.52v1.64h-.63l-.15-.59c-.14-.56-.43-.64-1.52-.64h-.46v1.79h.23a.6.6 0 0 0 .66-.27l.2-.53h.46l-.17 1.92h-.45l-.08-.48c0-.21-.14-.28-.63-.28h-.2v1.82h.47c1.09 0 1.4-.09 1.56-.64l.15-.57h.68zM4.21 88.63v-23.34h-1.72v25.07h6.87v-1.73h-5.15zM21.69 73.48c0-2-1.27-3-3.43-3.07h-8.06v1.69h6.54c2.69 0 3.46.81 3.26 3.21a7.17 7.17 0 0 1-.13 1 2.93 2.93 0 0 0 1.82-2.83zM18.82 82.54h-7.82v1.73h5.4a6.6 6.6 0 0 0 5.18-2.11 9.8 9.8 0 0 1-2.76.38zM45.23 71.37l-.92 1.92 2.68 5.51h1.85l-3.61-7.43zM28.96 88.72l11.34-23.43h-1.92l-12.19 25.13h10.11v-1.7h-7.34zM53.65 88.74l-1.86-3.82h-13.02l-.86 1.72h12.85l1.86 3.8h7.27v-1.7h-6.24zM103.72 71.34l-.92 1.91 2.68 5.52h1.85l-3.61-7.43zM87.44 88.69l11.34-23.44h-1.91l-12.2 25.14h10.11v-1.7h-7.34zM112.14 88.71l-1.86-3.82h-13.03l-.86 1.72h12.86l1.86 3.8h7.27v-1.7h-6.24zM71.03 88.64l-11.16-23.37h-1.91l11.97 25.09h5.98l.82-1.72h-5.7zM73.19 81.6l7.81-16.34h-1.9l-6.49 13.6.58 2.74zM124.42 88.7v-23.26h-1.74l.01 24.98h7.08l-.01-1.72h-5.34zM142.91 78.68v-13.24h-1.73v11.41l1.73 1.83zM143.99 88.67l-13.01-14.26-.04 2.5 12.28 13.5h5.63v-1.74h-4.86zM11.37 87.1h-5.63v-23.59h14.43a8.49 8.49 0 0 1 8.67 8.88c0 5.23-3.57 8.89-8.67 8.89h-8.8v5.82zm0-11.45h8.81a3.06 3.06 0 0 0 3-3.26 3.2 3.2 0 0 0-3-3.26h-8.81v6.52zM61.05 87.2h-6.44l-1.8-3.73h-13.25l-1.84 3.73h-6.35l11.43-23.59h6.68l11.57 23.59zm-18.74-9.35h7.79l-3.91-8-3.88 8zM119.54 87.17h-6.44l-1.8-3.73h-13.3l-1.83 3.73h-6.31l11.43-23.59h6.71l11.57 23.59zm-18.75-9.35h7.79l-3.91-8-3.88 8zM78.48 87.16h-6.48l-11.15-23.59h6.26l8.12 17.23 8.28-17.23h6.31l-11.34 23.59zM150 87.18h-5.31l-13.1-14.41v14.41h-5.59v-23.59h5.32l13.06 14.41v-14.41h5.62v23.59z"/></svg>