<svg xmlns="http://www.w3.org/2000/svg" viewBox="0 0 150 150"><defs><style>.a{fill:#333c45;}</style></defs><title>-icons</title><path class="a" d="M74.28 45v-.16l-19.11 6.82-1.55-.55 20.66-7.42v-.16l20.6 7.4-2 .7zm20.6 7.95l-2 .7-1.59-.57 2-.7zm0 2l-2 .7-1.58-.56 2-.71zm0 2l-2 .7-1.59-.57 2-.7zm0 2l-2 .71-1.58-.57 2-.7zm0 2l-6.8 2.41-1.59-.56 6.81-2.41zm-.18 5.43l-1.89.62-6.34-2.25 1.88-.67zm0 2l-1.9.62-1.54-.55 1.87-.67zm0 2l-1.87.62-1.57-.55 1.87-.67zm0 2l-1.85.62-1.57-.56 1.88-.66zm0 2l-1.85.62-1.54-.55 1.88-.67zm0 2l-20.44 7.33v.16l-20.64-7.42 2-.7 18.66 6.66v.14l18.9-6.75zm-41.08-1.93l2-.7 1.59.57-2 .7zm0-2l2-.7 1.58.56-2 .71zm0-2l2-.71 1.59.57-2 .7zm0-2l2-.69 1.58.56-2 .71zm0-2l6.38-2.25 1.6.57-6.38 2.23zm0-5.35l1.87-.67 6.29 2.23-1.88.67zm0-2l1.87-.68 1.6.58-1.87.67zm0-2l1.87-.67 1.59.57-1.87.67zm0-2l1.87-.67 1.58.57-1.87.67zm33.63-1.48l-12.97-4.62v-.16l-13.48 4.82-1.57-.56 15.05-5.4v-.16l15 5.39zm1.23.44l2-.71 1.58.56-2 .71zm-1.22 1.56l-1.59-.56 2-.72 1.59.57zm1.23.44l2-.71 1.57.57-2 .7zm-1.24 1.56l-1.58-.56 2-.71 1.59.56zm1.22.44l2-.71 1.59.57-2 .71zm-6.05 3.28l-1.59-.57 6.83-2.43 1.59.57zm1.22.44l6.83-2.43 1.57.57-6.81 2.42zm-1.23 1.55l-1.57-.56 1.87-.66 1.59.56zm1.23.44l1.88-.67 1.59.56-1.89.67zm-1.22 1.56l-1.59-.56 1.88-.66 1.59.56zm1.23.43l1.87-.67 6.34 2.25-1.86.66zm3.57 3.24l-6.36-2.26 1.88-.67 6.36 2.25zm1.24.44l1.87-.67 1.55.55-1.88.68zm-1.24 1.56l-1.56-.56 1.87-.67 1.57.56zm1.24.45l1.87-.67 1.58.56-1.91.66zm-1.21 1.55l-1.59-.57 1.87-.68 1.58.56zm1.24.44l1.88-.67 1.56.56-1.87.67zm-28.49-.12l-2 .68-1.58-.57 2-.71zm1.22-1.57l1.59.56-2 .71-1.58-.57zm-1.22-.43l-2 .68-1.57-.57 2-.71zm1.24-1.56l1.58.56-2 .71-1.57-.56zm-1.24-.44l-2 .68-1.58-.57 2-.71zm5.6-3.12l1.59.57-6.38 2.23-1.58-.58zm-1.24-.43l-6.36 2.23-1.57-.56 6.34-2.26zm-1.57-2.57l1.59.57-1.32.47-1.6-.57zm1.86-1.53l-1.88.67-6.3-2.24 1.87-.67zm-3.51-3.24l6.32 2.25-1.89.67-6.3-2.24zm-1.24-.43l-1.9.66-1.56-.55 1.86-.67zm1.22-1.56l1.57.56-1.87.67-1.57-.56zm-1.24-.44l-1.88.66-1.56-.55 1.87-.67zm21.78-.37l-7.38-2.63v-.15l-7.86 2.8-1.59-.56 9.44-3.39v-.16l9.39 3.37zm1.22.44l2-.72 1.59.57-2 .71zm-6.07 3.29l-1.6-.57 6.87-2.44 1.58.57zm1.19.42l6.85-2.44 1.57.57-6.84 2.44zm-1.23 1.56l-1.59-.57 1.88-.67 1.58.57zm1.23.44l1.88-.67 1.58.57-1.88.67zm-1.22 1.56l-1.6-.56 1.88-.66 1.59.56zm1.22.44l1.89-.67 1.58.56-1.88.67zm-1.22 1.56l-1.58-.56 1.88-.66 1.58.56zm1.22.43l1.89-.66 1.59.56-1.88.67zm-1.22 1.56l-1.6-.56 1.89-.67 1.59.56zm1.23.44l1.88-.67 6.37 2.26-1.83.64zm3.63 3.23l-6.39-2.27 1.87-.66 6.38 2.27zm1.22.44l1.88-.67 1.57.56-1.88.67zm-17.24-.16l-2 .72-1.62-.53 2-.72zm5.61-3.12l1.6.56-6.42 2.28-1.58-.57zm-1.23-.4l-6.39 2.24-1.61-.53 6.38-2.26zm-2.82-3l-1.32.47-1.59-.56 1.33-.47zm-1.63-2.55l1.61.56-1.29.46-1.6-.57zm2.83-1l1.62.57-1.32.47-1.68-.56zm1.87-1.53l-1.88.67-6.32-2.25 1.87-.67zm4 .57l-1.61-.56 1.6-.57 1.6.57zm0 2l-1.58-.56 1.61-.57 1.58.56zm.05 2l-1.61-.56 1.58-.56 1.59.57zm0 2l-1.58-.57 1.59-.56 1.58.56zm0 2l-1.6-.57 1.58-.56 1.59.56zm-4.3-2.48l-1.31.46-1.6-.57 1.32-.46zm0-2l-1.31.46-1.58-.56 1.3-.46zm-.08.9l1.31-.47 1.61.57-1.33.47zm2.89 2.09l-1.3.46-1.58-.56 1.3-.46zm0-4l-1.29.46-1.59-.56 1.31-.47zm-1.61-2.55l1.6.57-1.32.47-1.59-.56zm3.06 13.48v.17l-6.63-2.38 6.69-2.38 6.39 2.27zm0-20v-.16l6.59 2.37-6.85 2.45-6.36-2.25zm-10.66 3l-1.6-.59 1.87-.67 1.63.57zm3.1-.24l6.35 2.26-1.88.67-6.32-2.28zm7.54 19.26v.18l-9.43-3.39 2-.72 7.41 2.65v.14l7.67-2.73 1.58.56zm0 2v.16l-12.24-4.4 2-.72 10.26 3.65v.13l10.47-3.73 1.6.57zm0-28v-.18l12.19 4.38-2 .71-10.15-3.62v-.15l-10.67 3.81-1.61-.57zm-16.24 4.95l-1.56-.55 1.87-.67 1.56.56zm3.11-.23l1.58.57-1.88.67-1.57-.56zm13.15 25.28v.15l-15-5.4 2-.71 13 4.65v.15l13.3-4.75 1.58.57zm0 2v.16l-17.84-6.41 2-.71 15.84 5.65v.16l16.12-5.76 1.55.55zm0-36v-.18l17.8 6.4-2 .71-15.78-5.64v-.16l-16.28 5.82-1.56-.55zm-20.63 7.4l1.86-.67 1.56.56-1.87.67zm42.24-2.11v-.31l-21.59-7.69v-.17l-21.61 7.72v.88l1.57.57-1.57.57v.87l1.59.56-1.59.57v.8600000000000001h.05l1.55.57-1.6.57v.8400000000000001h.07l1.54.59-1.61.58v.9000000000000001h.07l1.55.52-1.62.58v.8800000000000001h.09l6.24 2.2-6.36 2.26v.78l1.72.61-1.73.61v.78l1.71.61-1.71.61v.78l1.72.61-1.72.61v.78l1.71.61-1.71.61v.78l1.7.61-1.71.61v.79l21.59 7.71v.15l21.61-7.71v-.76l-1.77-.63 1.77-.63v-.74l-1.77-.63 1.77-.63v-.73l-1.79-.63 1.79-.64v-.73l-1.81-.65 1.81-.64v-.7l-1.81-.65 1.81-.64v-.7l-6.59-2.34 6.59-2.35v-.74l-1.77-.63 1.77-.63v-.75l-1.76-.62 1.76-.64v-.73l-1.76-.63 1.76-.62v-.76l-1.75-.62 1.75-.62v-.76l-1.75-.63 1.75-.62v-.44zM84.33 99.92c0 1.79 1.07 2.72 3.83 3.32 2.39.51 2.85 1.11 2.85 2 0 1.11-1 1.85-2.41 1.85a5.23 5.23 0 0 1-3.79-1.56l-.06-.06-.9 1.06.07.06a6.6 6.6 0 0 0 4.64 1.82c2.3 0 3.91-1.34 3.91-3.26 0-1.74-1.11-2.72-3.72-3.28s-3-1.13-3-2.09.94-1.75 2.3-1.75a4.83 4.83 0 0 1 3.18 1.19l.07.06.84-1.11-.07-.05a5.92 5.92 0 0 0-4-1.39c-2.18 0-3.77 1.32-3.77 3.14"/><path class="a" d="M99.45 98.28c1.86 0 2.92.86 2.92 2.34s-1.19 2.41-3 2.41h-2.66v-4.75h2.75zm-4.1-1.34h-.08v11.38h1.44v-4h2.64c2.23 0 4.49-1.16 4.49-3.75 0-2.24-1.68-3.67-4.28-3.67h-4.2zM114.55 96.94h-8.19v11.38h8.36v-1.33h-6.92v-3.75h6.12v-1.32h-6.12v-3.65h6.84v-1.33h-.09zM127 96.94h-1.5l-3.76 5.54-3.74-5.54h-1.74l4.73 6.89v4.49h1.45v-4.51l4.73-6.87h-.17zM137.53 96.94h-8.18v11.38h8.35v-1.33h-6.92v-3.75h6.12v-1.32h-6.12v-3.65h6.84v-1.33h-.09zM145.28 98.28c1.74 0 2.78.79 2.78 2.12s-1.09 2.25-2.8 2.25h-3.35v-4.37h3.37zm-4.72-1.34h-.09v11.38h1.44v-4.32h3.09l3.25 4.35h1.75l-3.47-4.61a3.3 3.3 0 0 0 3-3.32 3.21 3.21 0 0 0-.89-2.3 4.53 4.53 0 0 0-3.25-1.15h-4.82zM10.97 96.94h-10.33v1.34h4.48v10.04h1.46v-10.04h4.48v-1.34h-.09zM14.83 96.94h-1.36v11.38h1.44v-11.38h-.08zM18.14 99.92c0 1.79 1.07 2.72 3.83 3.32 2.39.51 2.85 1.11 2.85 2 0 1.11-1 1.85-2.41 1.85a5.21 5.21 0 0 1-3.78-1.56l-.07-.06-.9 1.06.06.06a6.61 6.61 0 0 0 4.64 1.82c2.3 0 3.91-1.34 3.91-3.26 0-1.74-1.11-2.72-3.72-3.28s-3-1.13-3-2.09 1-1.75 2.3-1.75a4.83 4.83 0 0 1 3.15 1.26l.07.06.93-1.12-.06-.05a5.92 5.92 0 0 0-4-1.39c-2.18 0-3.77 1.32-3.77 3.14"/><path class="a" d="M38.15 96.94h-1.35v4.98h-6.29v-4.98h-1.44v11.38h1.44v-5.04h6.29v5.04h1.44v-11.38h-.09zM60.88 99.57l2.27 4.48h-4.56zm0-2.71l-5.83 11.45h1.49l1.54-3h5.63l1.46 3h1.55zM78 96.94h-1.36v8.82l-6.93-8.82h-1.32v11.38h1.4v-9l7.11 9h1.1v-11.38zM51.74 96.94h-.02l-4.26 8.6-4.29-8.6-.04.02v-.02h-1.41v11.38h1.4l.01-8.41 4.32 8.49h.07l4.22-8.46v8.38h1.45v-11.38h-1.45z"/></svg>